<?xml version="1.0" standalone="no"?>
<!DOCTYPE svg PUBLIC "-//W3C//DTD SVG 20010904//EN"
 "http://www.w3.org/TR/2001/REC-SVG-20010904/DTD/svg10.dtd">
<svg version="1.0" xmlns="http://www.w3.org/2000/svg"
 width="800.000000pt" height="800.000000pt" viewBox="0 0 800.000000 800.000000"
 preserveAspectRatio="xMidYMid meet">
<metadata>
Created by potrace 1.14, written by Peter Selinger 2001-2017
</metadata>
<g transform="translate(0.000000,800.000000) scale(0.100000,-0.100000)"
fill="#000000" stroke="none">
<path d="M3645 7765 c-345 -87 -596 -346 -669 -692 -17 -81 -20 -255 -6 -318
7 -28 13 -59 16 -69 16 -82 79 -219 138 -300 56 -79 148 -167 225 -216 38 -25
70 -51 70 -59 1 -8 -13 -58 -30 -110 -75 -227 -109 -334 -149 -459 -23 -74
-44 -131 -47 -128 -3 3 -11 15 -17 27 -16 32 -76 77 -111 84 -95 17 -302 23
-452 12 -117 -8 -140 -14 -181 -44 -56 -42 -66 -73 -68 -212 l-2 -125 -95 -31
c-53 -18 -145 -55 -205 -84 l-109 -53 -80 81 c-147 147 -202 149 -369 8 -101
-85 -175 -161 -254 -262 -72 -92 -80 -107 -80 -154 0 -63 15 -89 106 -181 61
-63 83 -92 78 -104 -8 -20 -10 -20 -184 55 l-135 57 -6 74 c-23 269 -227 469
-494 485 -214 14 -412 -107 -505 -309 -28 -62 -29 -66 -27 -218 2 -154 2 -156
35 -221 74 -146 214 -254 372 -286 144 -29 326 21 438 122 l49 44 153 -64 c84
-35 154 -66 157 -68 8 -9 -9 -57 -21 -58 -6 0 -63 -2 -126 -3 -129 -3 -163
-14 -203 -68 -37 -49 -49 -123 -51 -319 -4 -276 21 -383 99 -426 34 -19 59
-22 164 -25 l124 -3 29 -90 c16 -49 54 -141 84 -204 l54 -114 -82 -84 c-90
-90 -107 -118 -108 -176 0 -65 49 -138 191 -283 43 -45 79 -85 79 -88 0 -3
-79 -109 -176 -234 -96 -125 -179 -233 -183 -240 -6 -10 -16 -9 -52 3 -363
131 -743 -13 -923 -348 -59 -110 -80 -202 -80 -342 1 -170 35 -286 126 -419
99 -145 229 -236 435 -303 54 -18 271 -16 354 3 162 37 338 160 434 304 57 85
80 138 106 237 49 193 11 415 -101 584 -22 33 -37 66 -33 72 4 7 88 117 187
246 100 128 192 248 206 266 14 18 45 50 69 71 25 22 65 60 90 87 25 26 50 47
56 47 5 0 46 -17 90 -39 94 -46 189 -84 265 -107 l55 -16 -1 -113 c-2 -190 34
-243 178 -263 65 -9 427 -9 485 0 62 10 110 36 141 76 26 34 27 42 30 167 l3
132 99 32 c54 18 145 56 203 85 l106 52 73 -73 c40 -41 87 -83 103 -93 96 -60
177 -23 376 172 102 99 190 201 214 248 34 65 20 141 -36 201 -22 23 -38 43
-37 44 2 1 64 -28 139 -64 75 -36 196 -95 270 -130 74 -36 217 -105 319 -154
244 -118 427 -206 578 -278 99 -48 122 -63 118 -77 -120 -413 -10 -850 288
-1147 101 -101 124 -120 211 -174 186 -118 368 -172 595 -176 204 -5 377 33
548 119 62 31 158 90 172 106 3 3 21 17 40 31 162 121 308 336 387 571 27 81
27 88 28 318 0 253 -2 272 -41 389 -57 173 -146 314 -283 452 -140 140 -299
238 -479 293 -135 42 -203 51 -362 50 -236 -2 -436 -64 -644 -202 -74 -49
-235 -203 -276 -264 -14 -21 -30 -38 -36 -38 -7 0 -97 41 -200 91 -201 97
-384 185 -579 279 -66 32 -185 89 -265 128 -396 191 -483 232 -491 232 -13 0
-12 10 11 84 l21 66 118 0 c136 0 176 12 214 62 41 55 47 93 52 318 5 258 -13
364 -69 412 -38 33 -69 41 -186 44 -63 1 -120 3 -126 3 -7 1 -15 18 -19 39
-10 53 -67 198 -114 289 l-40 77 80 80 c44 44 87 93 95 108 20 39 20 108 -1
149 -26 50 -130 172 -227 264 -154 148 -217 189 -287 184 -54 -4 -78 -19 -170
-110 l-83 -82 -83 42 -84 41 25 73 c25 73 97 298 99 307 0 3 8 28 17 55 9 28
44 136 78 240 33 105 67 208 75 231 l15 40 83 -1 c45 -1 100 2 122 6 22 4 57
10 77 13 84 13 270 96 336 151 124 102 173 157 240 266 24 39 60 119 79 177
36 104 37 111 37 262 1 178 -12 242 -75 378 -117 254 -349 442 -609 497 -87
18 -323 18 -395 0z m-781 -2669 c-1 -100 1 -116 24 -158 29 -55 71 -79 167
-98 135 -26 328 -107 448 -188 117 -78 176 -68 296 50 l81 80 23 -19 c29 -22
87 -88 87 -98 0 -4 -32 -39 -71 -78 -120 -120 -130 -170 -57 -289 106 -175
157 -294 189 -440 39 -178 76 -208 256 -208 l111 0 3 -42 c2 -24 2 -61 -1 -83
l-5 -40 -117 -1 c-111 -1 -120 -3 -156 -28 -50 -34 -67 -69 -92 -183 -31 -146
-90 -281 -190 -442 -30 -49 -40 -75 -40 -107 0 -66 15 -93 101 -179 l79 -81
-58 -57 -59 -58 -69 71 c-117 122 -184 138 -290 74 -131 -80 -155 -94 -224
-124 -40 -17 -79 -33 -88 -36 -10 -2 -69 -18 -132 -34 -139 -36 -152 -42 -187
-93 -26 -37 -28 -47 -29 -152 0 -61 -3 -116 -6 -121 -5 -7 -113 -11 -150 -5
-5 0 -8 48 -8 106 0 112 -12 160 -52 202 -22 23 -55 35 -205 73 -132 33 -286
103 -402 183 -50 34 -112 45 -165 27 -23 -7 -67 -42 -117 -92 l-80 -80 -54 54
c-30 29 -55 57 -55 62 0 4 32 40 71 79 76 76 96 106 100 152 5 60 -2 81 -47
150 -56 87 -115 207 -149 305 -14 41 -25 75 -24 75 1 0 -6 35 -16 78 -32 146
-73 178 -233 182 -59 2 -113 3 -119 4 -9 1 -13 24 -13 81 l0 80 110 0 c177 0
224 33 255 179 33 159 109 339 194 466 76 111 62 179 -59 299 -38 38 -70 72
-70 76 0 3 25 30 55 60 l55 54 78 -76 c42 -42 91 -83 107 -91 33 -16 133 -16
143 0 12 18 179 113 263 150 46 19 137 49 204 65 66 16 134 39 152 49 54 33
73 89 73 210 0 58 3 108 6 111 3 3 40 6 82 5 l77 0 -1 -111z"/>
<path d="M2663 4025 c-163 -44 -298 -179 -342 -343 -13 -47 -16 -146 -6 -207
12 -73 74 -186 135 -245 192 -186 486 -182 670 9 253 264 131 693 -223 787
-66 17 -167 17 -234 -1z m191 -344 c40 -26 56 -52 61 -105 11 -103 -113 -181
-202 -126 -82 49 -92 151 -21 217 47 44 105 49 162 14z"/>
</g>
</svg>
