<svg xmlns="http://www.w3.org/2000/svg" version="1.1" xmlns:xlink="http://www.w3.org/1999/xlink" xmlns:svgjs="http://svgjs.dev/svgjs" width="1000" height="1000" viewBox="0 0 1000 1000"><rect width="1000" height="1000" fill="#051726"></rect><g transform="matrix(0.7,0,0,0.7,149.57575757575756,416.7196818005)"><svg xmlns="http://www.w3.org/2000/svg" version="1.1" xmlns:xlink="http://www.w3.org/1999/xlink" xmlns:svgjs="http://svgjs.com/svgjs" viewBox="0 0 396 95" data-background-color="#051726" preserveAspectRatio="xMidYMid meet" height="239" width="1000"><defs></defs><g id="tight-bounds" transform="matrix(1,0,0,1,0.2400000000000091,-0.20978292307484026)"><svg viewBox="0 0 395.52 95.41970384983813" height="95.41970384983813" width="395.52"><g><svg viewBox="0 0 397.4975999999999 95.89680236908731" height="95.41970384983813" width="395.52"><g><rect width="397.4975999999999" height="2.573010270464348" x="0" y="52.90712906102109" fill="#ffffff" opacity="1" stroke-width="0" stroke="transparent" fill-opacity="1" class="rect-borderrectangle-0" data-fill-palette-color="primary" rx="1%" id="borderrectangle-0" data-palette-color="#ffffff"></rect></g><g transform="matrix(1,0,0,1,0.9887999999999693,63.1992473339585)"><svg viewBox="0 0 395.52 32.69755503512881" height="32.69755503512881" width="395.52"><g><svg viewBox="0 0 395.52 32.69755503512881" height="32.69755503512881" width="395.52"><g><svg viewBox="0 0 395.52 32.69755503512881" height="32.69755503512881" width="395.52"><g transform="matrix(1,0,0,1,0,0)"><svg width="395.52" viewBox="0.2 -34.8 426.97 35.3" height="32.69755503512881" data-palette-color="#ffffff"><path d="M13.6-34.3L19-34.3 32.4 0 27.1 0 24.2-7.45 7.8-7.45 4.95 0 0.2 0 13.6-34.3ZM22.5-11.9L16.2-28.4 15.9-28.4 9.55-11.9 22.5-11.9ZM56.35-34.3L61.4-34.3 49.35-13.25 49.35 0 44.45 0 44.45-13.25 32.35-34.3 37.95-34.3 47.1-18.35 47.3-18.35 56.35-34.3ZM78.4-34.8Q82.4-34.8 85.4-33.15 88.4-31.5 90.02-28.43 91.65-25.35 91.65-21.15L91.65-21.15 86.75-21.15Q86.75-25.5 84.6-27.93 82.45-30.35 78.4-30.35L78.4-30.35Q73.9-30.35 71.55-27.58 69.2-24.8 69.2-19.4L69.2-19.4 69.2-14.9Q69.2-9.55 71.5-6.75 73.8-3.95 78.3-3.95L78.3-3.95Q82.5-3.95 84.72-6.35 86.95-8.75 86.95-13.05L86.95-13.05 91.65-13.05Q91.65-8.9 90.02-5.85 88.4-2.8 85.4-1.15 82.4 0.5 78.4 0.5L78.4 0.5Q71.75 0.5 68.02-3.58 64.3-7.65 64.3-14.9L64.3-14.9 64.3-19.4Q64.3-26.6 68.02-30.7 71.75-34.8 78.4-34.8L78.4-34.8ZM120.14-34.3L125.54-34.3 138.94 0 133.64 0 130.74-7.45 114.34-7.45 111.49 0 106.74 0 120.14-34.3ZM129.04-11.9L122.74-28.4 122.44-28.4 116.09-11.9 129.04-11.9ZM168.84-34.3L168.84-10.95Q168.84-7.55 167.31-4.95 165.79-2.35 162.96-0.93 160.14 0.5 156.44 0.5L156.44 0.5 155.79 0.5Q152.09 0.5 149.31-0.9 146.54-2.3 144.99-4.9 143.44-7.5 143.44-10.95L143.44-10.95 143.44-34.3 148.34-34.3 148.34-11.05Q148.34-7.85 150.56-5.9 152.79-3.95 156.24-3.95L156.24-3.95Q159.79-3.95 161.86-5.9 163.94-7.85 163.94-11.05L163.94-11.05 163.94-34.3 168.84-34.3ZM174.39-34.3L200.79-34.3 200.79-29.85 190.04-29.85 190.04 0 185.14 0 185.14-29.85 174.39-29.85 174.39-34.3ZM218.73-34.8Q222.98-34.8 226.18-32.95 229.38-31.1 231.16-27.63 232.93-24.15 232.93-19.4L232.93-19.4 232.93-14.9Q232.93-10.15 231.16-6.68 229.38-3.2 226.18-1.35 222.98 0.5 218.73 0.5L218.73 0.5Q214.48 0.5 211.28-1.35 208.08-3.2 206.31-6.68 204.53-10.15 204.53-14.9L204.53-14.9 204.53-19.4Q204.53-24.15 206.31-27.63 208.08-31.1 211.28-32.95 214.48-34.8 218.73-34.8L218.73-34.8ZM218.73-30.35Q214.33-30.35 211.88-27.55 209.43-24.75 209.43-19.4L209.43-19.4 209.43-14.9Q209.43-9.55 211.81-6.75 214.18-3.95 218.73-3.95L218.73-3.95Q223.13-3.95 225.58-6.73 228.03-9.5 228.03-14.9L228.03-14.9 228.03-19.4Q228.03-24.75 225.66-27.55 223.28-30.35 218.73-30.35L218.73-30.35ZM270.63-34.3L278.28-34.3 278.28 0 273.38 0 273.38-28.55 273.08-28.55 261.23 0 257.08 0 245.28-28.55 245.03-28.55 245.03 0 240.58 0 240.58-34.3 248.28-34.3 259.33-7.3 259.53-7.3 270.63-34.3ZM296.48-34.3L301.88-34.3 315.28 0 309.98 0 307.08-7.45 290.68-7.45 287.83 0 283.08 0 296.48-34.3ZM305.38-11.9L299.08-28.4 298.78-28.4 292.43-11.9 305.38-11.9ZM316.73-34.3L343.13-34.3 343.13-29.85 332.38-29.85 332.38 0 327.48 0 327.48-29.85 316.73-29.85 316.73-34.3ZM347.02-34.3L359.92-34.3 359.92-29.85 355.92-29.85 355.92-4.45 359.92-4.45 359.92 0 347.02 0 347.02-4.45 351.02-4.45 351.02-29.85 347.02-29.85 347.02-34.3ZM379.82-34.8Q384.07-34.8 387.27-32.95 390.47-31.1 392.25-27.63 394.02-24.15 394.02-19.4L394.02-19.4 394.02-14.9Q394.02-10.15 392.25-6.68 390.47-3.2 387.27-1.35 384.07 0.5 379.82 0.5L379.82 0.5Q375.57 0.5 372.37-1.35 369.17-3.2 367.39-6.68 365.62-10.15 365.62-14.9L365.62-14.9 365.62-19.4Q365.62-24.15 367.39-27.63 369.17-31.1 372.37-32.95 375.57-34.8 379.82-34.8L379.82-34.8ZM379.82-30.35Q375.42-30.35 372.97-27.55 370.52-24.75 370.52-19.4L370.52-19.4 370.52-14.9Q370.52-9.55 372.89-6.75 375.27-3.95 379.82-3.95L379.82-3.95Q384.22-3.95 386.67-6.73 389.12-9.5 389.12-14.9L389.12-14.9 389.12-19.4Q389.12-24.75 386.75-27.55 384.37-30.35 379.82-30.35L379.82-30.35ZM422.72-34.3L427.17-34.3 427.17 0 423.02 0 406.27-25.1 406.12-25.05 406.12 0 401.67 0 401.67-34.3 405.97-34.3 422.57-9.5 422.72-9.55 422.72-34.3Z" opacity="1" transform="matrix(1,0,0,1,0,0)" fill="#ffffff" class="undefined-text-0" data-fill-palette-color="primary" id="text-0"></path></svg></g></svg></g></svg></g></svg></g><g transform="matrix(1,0,0,1,174.82619162256032,0)"><svg viewBox="0 0 47.84521675487931 45.18802105854802" height="45.18802105854802" width="47.84521675487931"><g><svg xmlns="http://www.w3.org/2000/svg" xmlns:xlink="http://www.w3.org/1999/xlink" version="1.1" x="0" y="0" viewBox="14.278319999999994 16.262207099999998 71.4433597 67.47558609999999" style="enable-background:new 0 0 100 100;" xml:space="preserve" height="45.18802105854802" width="47.84521675487931" class="icon-icon-0" fill="#81ffd9" data-fill-palette-color="accent" id="icon-0"><g><path d="M36.576 57.147c0.725 0.57 1.644 0.884 2.588 0.885 1.611 0 3.102-0.94 3.795-2.387 0.28-0.577 0.423-1.193 0.423-1.832 0-1.843-1.175-3.458-2.909-4.014-0.424-0.142-0.865-0.213-1.309-0.214-1.699 0-3.227 1.014-3.901 2.598-0.217 0.526-0.327 1.075-0.327 1.63C34.936 55.12 35.556 56.371 36.576 57.147zM38.03 53.342c0.195-0.459 0.641-0.757 1.134-0.757 0.121 0 0.243 0.02 0.377 0.065 0.496 0.159 0.842 0.638 0.841 1.163 0 0.179-0.041 0.354-0.125 0.527-0.32 0.668-1.262 0.892-1.844 0.435-0.298-0.227-0.477-0.587-0.477-0.962C37.936 53.648 37.968 53.494 38.03 53.342z" fill="#81ffd9" data-fill-palette-color="accent"></path><path d="M18.933 49.922c1.378 0 2.604-0.613 3.457-1.567l2.814 1.186c-0.055 0.18-0.115 0.359-0.162 0.54h-1.828c-0.744 0-1.376 0.546-1.484 1.282-0.114 0.773-0.171 1.598-0.171 2.45 0 0.858 0.056 1.657 0.171 2.441 0.108 0.736 0.74 1.282 1.484 1.283h1.825c0.328 1.262 0.833 2.487 1.495 3.624l-1.286 1.293c-0.525 0.527-0.584 1.36-0.138 1.956 0.65 0.869 1.38 1.66 2.171 2.377l-3.356 4.355c-0.832-0.38-1.754-0.597-2.727-0.598-3.637 0-6.597 2.959-6.596 6.597s2.959 6.597 6.596 6.597 6.597-2.959 6.597-6.597c0-1.581-0.56-3.034-1.492-4.171l3.848-4.994c0.133-0.069 0.264-0.148 0.375-0.259l1.288-1.288c1.133 0.666 2.343 1.167 3.617 1.498v1.826c0 0.744 0.546 1.376 1.282 1.484 0.817 0.12 1.642 0.181 2.451 0.181 0.802 0 1.624-0.061 2.441-0.181 0.736-0.108 1.282-0.74 1.282-1.484v-1.825c1.281-0.332 2.491-0.832 3.619-1.496l1.286 1.285c0.526 0.528 1.361 0.587 1.958 0.141 1.314-0.982 2.479-2.141 3.463-3.441 0.452-0.597 0.394-1.436-0.135-1.966l-0.535-0.535 12.859 6.196c-0.309 0.984-0.477 2.029-0.478 3.114 0 5.734 4.665 10.398 10.399 10.398s10.398-4.665 10.399-10.398-4.665-10.399-10.399-10.399c-3.582 0-6.746 1.82-8.617 4.584l-13.809-6.654c0.144-0.4 0.274-0.806 0.382-1.22h1.825c0.744 0 1.376-0.546 1.484-1.283 0.115-0.784 0.171-1.583 0.171-2.441 0-0.853-0.058-1.677-0.171-2.45-0.108-0.736-0.74-1.282-1.484-1.282h-1.827c-0.331-1.273-0.832-2.483-1.497-3.617l1.288-1.288c0.526-0.525 0.587-1.357 0.144-1.954-0.967-1.304-2.126-2.471-3.446-3.468-0.597-0.45-1.437-0.393-1.965 0.136l-1.3 1.3c-0.477-0.279-0.966-0.524-1.462-0.741l2.72-8.454c0.284 0.031 0.571 0.05 0.864 0.049 4.351 0 7.891-3.54 7.89-7.891s-3.54-7.891-7.89-7.891-7.891 3.54-7.892 7.891c0 3.003 1.687 5.619 4.164 6.952l-2.069 6.426c-0.137-0.589-0.601-1.06-1.221-1.151-1.552-0.228-3.352-0.227-4.892 0-0.736 0.108-1.282 0.74-1.282 1.484v1.826c-1.273 0.331-2.483 0.832-3.616 1.498l-1.298-1.298c-0.529-0.529-1.368-0.586-1.965-0.136-1.32 0.998-2.479 2.165-3.446 3.468-0.443 0.597-0.382 1.429 0.144 1.954l1.289 1.288c-0.058 0.1-0.102 0.214-0.159 0.317l-2.824-1.19c0.008-0.109 0.033-0.213 0.032-0.323 0-2.567-2.088-4.655-4.655-4.656s-4.655 2.088-4.655 4.656S16.366 49.922 18.933 49.922zM27.733 51.825c0.138-0.837 0.387-1.692 0.735-2.529 0.334-0.783 0.74-1.51 1.207-2.16 0.429-0.597 0.362-1.416-0.158-1.936l-1.187-1.187c0.324-0.362 0.668-0.708 1.03-1.037l1.191 1.191c0.518 0.519 1.334 0.585 1.931 0.161 1.408-1.003 2.989-1.658 4.698-1.947 0.722-0.122 1.251-0.747 1.251-1.479v-1.676c0.478-0.022 0.979-0.022 1.456 0v1.676c0 0.729 0.524 1.352 1.242 1.478 0.566 0.099 1.093 0.23 1.599 0.401 1.096 0.341 2.143 0.862 3.111 1.549 0.597 0.422 1.412 0.354 1.929-0.163l1.19-1.191c0.363 0.329 0.707 0.675 1.031 1.037l-1.188 1.187c-0.518 0.518-0.586 1.334-0.161 1.931 1.004 1.409 1.659 2.99 1.946 4.699 0.122 0.722 0.747 1.251 1.479 1.251h1.677c0.011 0.24 0.017 0.485 0.017 0.732 0 0.247-0.005 0.488-0.016 0.724h-1.678c-0.733 0-1.359 0.53-1.479 1.254-0.178 1.069-0.503 2.094-0.975 3.063-0.265 0.563-0.581 1.102-0.965 1.648-0.42 0.597-0.351 1.409 0.165 1.925l1.18 1.179c-0.328 0.36-0.674 0.704-1.038 1.03l-1.185-1.185c-0.519-0.52-1.339-0.586-1.936-0.158-1.389 0.998-2.968 1.652-4.694 1.943-0.722 0.122-1.251 0.747-1.251 1.479v1.683c-0.489 0.027-0.969 0.026-1.456 0v-1.683c0-0.732-0.529-1.357-1.251-1.479-1.709-0.288-3.29-0.943-4.698-1.946-0.597-0.425-1.414-0.358-1.931 0.161l-1.186 1.185c-0.361-0.322-0.706-0.665-1.034-1.027l1.179-1.185c0.514-0.517 0.583-1.328 0.162-1.923-0.996-1.41-1.666-3.037-1.939-4.706-0.119-0.726-0.746-1.258-1.48-1.258h-1.677c-0.011-0.235-0.017-0.476-0.017-0.724 0-0.248 0.006-0.493 0.017-0.732h1.677C26.987 53.081 27.613 52.549 27.733 51.825z" fill="#81ffd9" data-fill-palette-color="accent"></path></g></svg><g></g></g></svg></g><g></g></svg></g></svg></g></svg></g></svg>